<svg width="120" height="120" viewBox="0 0 120 120" fill="none" xmlns="http://www.w3.org/2000/svg">
<path d="M90 40V35H85V30H80V25H70V30H65V35H60V40H55V45H50V50H45V55H40V60H35V75H40V70H45V65H55V75H50V80H45V85H60V80H65V75H70V70H75V65H80V60H85V55H90V50H95V40H90ZM85 50H80V55H70V50H65V40H70V35H80V40H85V50Z" fill="#D0EDF4"/>
<path d="M35 75H30V80H35V75Z" fill="#FFD100"/>
<path d="M40 90V100H30V105H15V90H20V80H30V85H25V95H35V90H40Z" fill="#FFD100"/>
<path d="M45 85H40V90H45V85Z" fill="#FFD100"/>
<path d="M85 40V50H80V55H70V50H65V40H70V35H80V40H85Z" fill="#1A6A8A"/>
<path d="M55 85V95H50V100H45V105H35V110H10V85H15V75H20V70H25V65H35V75H30V80H20V90H15V105H30V100H40V90H45V85H55Z" fill="#EF9520"/>
<path d="M45 50V55H40V60H35V65H25V70H10V60H15V55H20V50H45Z" fill="#BC131A"/>
<path d="M70 75V100H65V105H60V110H50V95H55V85H60V80H65V75H70Z" fill="#BC131A"/>
<path d="M55 65V75H50V80H45V85H40V90H35V95H25V85H30V80H35V75H40V70H45V65H55Z" fill="#BC131A"/>
<path d="M110 10V35H105V40H100V45H95V40H90V35H85V30H80V25H75V20H80V15H85V10H110Z" fill="#BC131A"/>
<path d="M60 35H55V40H60V35Z" fill="black"/>
<path d="M65 30H60V35H65V30Z" fill="black"/>
<path d="M110 35H105V40H110V35Z" fill="black"/>
<path d="M105 40H100V45H105V40Z" fill="black"/>
<path d="M100 45H95V50H100V45Z" fill="black"/>
<path d="M95 50H90V55H95V50Z" fill="black"/>
<path d="M90 55H85V60H90V55Z" fill="black"/>
<path d="M85 60H80V65H85V60Z" fill="black"/>
<path d="M80 65H75V70H80V65Z" fill="black"/>
<path d="M15 55H10V60H15V55Z" fill="black"/>
<path d="M20 50H15V55H20V50Z" fill="black"/>
<path d="M10 60H5V70H10V60Z" fill="black"/>
<path d="M20 70V75H15V85H10V70H20Z" fill="black"/>
<path d="M35 110V115H5V85H10V110H35Z" fill="black"/>
<path d="M50 45H20V50H50V45Z" fill="black"/>
<path d="M60 110H50V115H60V110Z" fill="black"/>
<path d="M50 100V110H35V105H45V100H50Z" fill="black"/>
<path d="M55 40H50V45H55V40Z" fill="black"/>
<path d="M65 105H60V110H65V105Z" fill="black"/>
<path d="M70 25H65V30H70V25Z" fill="black"/>
<path d="M70 100H65V105H70V100Z" fill="black"/>
<path d="M80 15H75V20H80V15Z" fill="black"/>
<path d="M75 20H70V25H75V20Z" fill="black"/>
<path d="M75 70H70V100H75V70Z" fill="black"/>
<path d="M85 10H80V15H85V10Z" fill="black"/>
<path d="M115 5V35H110V10H85V5H115Z" fill="black"/>
</svg>
